<svg xmlns="http://www.w3.org/2000/svg" viewBox="0 0 79.73 117.2"><defs><style>.cls-1{fill:#0070cc;}</style></defs><title>Asset 15</title><g id="Layer_2" data-name="Layer 2"><g id="Home"><path class="cls-1" d="M15.35,117.2H0V38.46q0-17,11-27.73T38.13,0Q56,0,65,9a30,30,0,0,1,9,22Q74,47.71,58.44,55v.66q21.29,6.11,21.29,29.55,0,32-37.8,32H21.29V102.68H41.76q11.39,0,16.67-4.62T63.72,83.2q0-8.91-5.7-13.7T42.59,64.71H26.25V51H36.81a24.36,24.36,0,0,0,15.27-4.87A15.67,15.67,0,0,0,58.44,33a18.75,18.75,0,0,0-4.87-13.21Q48.7,14.53,37.8,14.53q-9.9,0-16.18,6.19T15.35,38.79Z"/></g></g></svg>