<svg xmlns="http://www.w3.org/2000/svg" viewBox="0 0 320.91 122.19"><defs><style>.cls-1{fill:#fff;}.cls-2{fill:#f72323;}</style></defs><title>Asset 11</title><g id="Layer_2" data-name="Layer 2"><g id="Home"><g id="Foncs-WHITE"><path class="cls-1" d="M15.66,31.17v23.2h31V69.6h-31v51.6H0V28.92Q0,16.1,7.83,8.31a25.25,25.25,0,0,1,12-6.75A72.92,72.92,0,0,1,36.16,0H53.82V15.24H34Q15.66,15.24,15.66,31.17Z"/><path class="cls-1" d="M57.6,48.25A38,38,0,0,1,86.76,35.61,37.94,37.94,0,0,1,102.67,39a41.43,41.43,0,0,1,13,9.26A43.24,43.24,0,0,1,124.41,62a44.88,44.88,0,0,1,3.17,16.88,45.93,45.93,0,0,1-3.08,16.88,42.76,42.76,0,0,1-8.58,13.76,40.12,40.12,0,0,1-13,9.26,40.56,40.56,0,0,1-32.41,0,40.38,40.38,0,0,1-12.91-9.26A42.72,42.72,0,0,1,49,95.78,45.88,45.88,0,0,1,45.94,78.9Q45.94,60.55,57.6,48.25Zm29.16,1.9q-11.66,0-18.74,8T60.93,78.9q0,12.82,7.08,20.78t18.74,8q11.83,0,18.83-8.05t7-20.69q0-12.64-7-20.69T86.76,50.16Z"/><path class="cls-1" d="M127.92,37.34h28.83q18.49,0,26.49,5.71,7.16,5,9.08,12t1.92,18.44v46.92H179.57V73.7q0-3.12-.17-5.28a28.16,28.16,0,0,0-1.17-5.54,15.11,15.11,0,0,0-2.83-5.54,15.58,15.58,0,0,0-5.33-3.81,19.88,19.88,0,0,0-8.5-1.65h-19v68.57H127.92Z"/><path class="cls-2" d="M251.61,102.27l10,10.22a39.66,39.66,0,0,1-26.33,9.7q-18.5,0-29.66-12.38T194.46,78.9q0-18.18,11.75-30.73a38.22,38.22,0,0,1,29.07-12.55,39.68,39.68,0,0,1,26.33,9.7L251.77,55.7a25.78,25.78,0,0,0-16.5-5.54q-11.5,0-18.24,7.88T210.29,78.9q0,13,6.75,20.86t18.24,7.88A25.2,25.2,0,0,0,251.61,102.27Z"/><path class="cls-1" d="M317.58,37.34V51.89H288.09a17.19,17.19,0,0,0-8.33,1.9,5.89,5.89,0,0,0-3.5,5.37,8.1,8.1,0,0,0,.83,3.72A9.75,9.75,0,0,0,279,65.57a13.84,13.84,0,0,0,3.33,2.17,31.1,31.1,0,0,0,3.5,1.56l10.58,3.55A146.27,146.27,0,0,1,310.25,78a16.49,16.49,0,0,1,6.92,5.63,19,19,0,0,1,3.08,6.93,34.57,34.57,0,0,1,.67,6.67q0,23.2-30.66,23.2H261.43V105.91h28.82q15.66,0,15.66-8.66,0-4.15-4.58-6.93a46.81,46.81,0,0,0-11.16-4.68q-6.58-1.9-13.16-4.42a26.25,26.25,0,0,1-11.16-8.14,21.34,21.34,0,0,1-4.58-13.94q0-10.56,7.83-16.19t19-5.63Z"/></g></g></g></svg>