<svg xmlns="http://www.w3.org/2000/svg" viewBox="0 0 75.77 117.2"><defs><style>.cls-1{fill:#f72323;}</style></defs><title>Asset 17</title><g id="Layer_2" data-name="Layer 2"><g id="Home"><path class="cls-1" d="M0,117.2V42.09q0-20,9.82-31T37.8,0Q56.13,0,65.95,8.91T75.77,34q0,10.4-5,17T54,61.41v.66q12.38,4.79,16.59,13.62t4.21,29.14V117.2H59.26V96.07q0-12.54-7.1-19.56t-20.47-7H22.78V55h9.41q15.85,0,22-6.44a21.54,21.54,0,0,0,6.11-15.35,16.89,16.89,0,0,0-6-13.54q-6-5.11-15.93-5.12-11.39,0-17.09,6.44t-5.7,21.13V117.2Z"/></g></g></svg>