<svg xmlns="http://www.w3.org/2000/svg" viewBox="0 0 272.7 218.08"><defs><style>.cls-1,.cls-2{fill:#fff;}.cls-1{stroke:#fff;stroke-linecap:round;stroke-linejoin:round;stroke-width:6px;}</style></defs><title>Asset 20</title><g id="Layer_2" data-name="Layer 2"><g id="Layer_7" data-name="Layer 7"><line class="cls-1" x1="3.71" y1="66.43" x2="268.27" y2="66.14"/><line class="cls-1" x1="3" y1="150.06" x2="269.7" y2="149.8"/><rect class="cls-2" x="48.9" y="0.5" width="35.47" height="100.53" rx="11.5" ry="11.5"/><path class="cls-2" d="M72.87,1a11,11,0,0,1,11,11V89.53a11,11,0,0,1-11,11H60.4a11,11,0,0,1-11-11V12a11,11,0,0,1,11-11H72.87m0-1H60.4a12,12,0,0,0-12,12V89.53a12,12,0,0,0,12,12H72.87a12,12,0,0,0,12-12V12a12,12,0,0,0-12-12Z"/><rect class="cls-2" x="131.13" y="117.05" width="35.47" height="100.53" rx="11.5" ry="11.5"/><path class="cls-2" d="M155.1,117.55a11,11,0,0,1,11,11v77.53a11,11,0,0,1-11,11H142.63a11,11,0,0,1-11-11V128.55a11,11,0,0,1,11-11H155.1m0-1H142.63a12,12,0,0,0-12,12v77.53a12,12,0,0,0,12,12H155.1a12,12,0,0,0,12-12V128.55a12,12,0,0,0-12-12Z"/></g></g></svg>