<svg xmlns="http://www.w3.org/2000/svg" viewBox="0 0 59.65 83.11"><defs><style>.cls-1{fill:#fc0;}</style></defs><title>Asset 12</title><g id="Layer_2" data-name="Layer 2"><g id="Home"><path class="cls-1" d="M56.32,0V14.54H26.83a17.19,17.19,0,0,0-8.33,1.9A5.89,5.89,0,0,0,15,21.82a8.1,8.1,0,0,0,.83,3.72,9.75,9.75,0,0,0,1.92,2.68,13.84,13.84,0,0,0,3.33,2.17,31.1,31.1,0,0,0,3.5,1.56L35.16,35.5A146.27,146.27,0,0,1,49,40.69a16.49,16.49,0,0,1,6.92,5.63A19,19,0,0,1,59,53.24a34.57,34.57,0,0,1,.67,6.67q0,23.2-30.66,23.2H.17V68.57H29q15.66,0,15.66-8.66,0-4.15-4.58-6.93a46.81,46.81,0,0,0-11.16-4.68q-6.58-1.9-13.16-4.42A26.25,26.25,0,0,1,4.58,35.76,21.34,21.34,0,0,1,0,21.82Q0,11.26,7.83,5.63T26.83,0Z"/></g></g></svg>